<svg class="icon" style="width: 1em;height: 1em;vertical-align: middle;fill: currentColor;overflow: hidden;" viewBox="0 0 1024 1024" version="1.1" xmlns="http://www.w3.org/2000/svg" p-id="13690"><path d="M626.812121 79.127273c-134.454303 64.139636-267.884606 142.211879-400.290909 234.278788-63.084606 44.466424-113.788121 85.860848-152.048485 124.121212-19.642182 19.642182-29.478788 43.969939-29.478788 72.921212 0 27.927273 9.836606 51.727515 29.478788 71.369697l71.369697 63.612121c62.060606 48.624485 131.878788 96.721455 209.454546 144.290909 81.702788 49.648485 158.782061 93.090909 231.175757 130.327273 85.860848 42.418424 160.333576 72.921212 223.418182 91.539394 27.927273 8.285091 53.775515 5.182061 77.575758-9.309091 24.824242-13.436121 40.339394-34.133333 46.545454-62.060606 5.182061-17.594182 10.860606-43.969939 17.066667-79.127273 8.285091-49.648485 14.491152-111.709091 18.618182-186.181818l6.20606-164.460606c-2.07903-112.733091-7.230061-204.8-15.515151-276.169697-5.182061-57.933576-13.963636-109.630061-26.375758-155.151515a88.219152 88.219152 0 0 0-29.478788-49.648485 95.511273 95.511273 0 0 0-51.2-24.824243c-15.515152-2.07903-34.660848 0.527515-57.40606 7.757576-49.648485 14.491152-106.030545 36.708848-169.115152 66.715152z m-66.715151 121.018182h136.533333l4.654545 1.551515-110.157575 395.636363c-3.10303 12.412121 1.551515 18.618182 13.963636 18.618182h288.581818l-34.133333 119.466667H400.290909l153.6-529.066667c0-4.12703 2.07903-6.206061 6.206061-6.20606z" fill="#ff7941" p-id="13691"></path></svg>